<svg xmlns="http://www.w3.org/2000/svg" width="14.304" height="14.304" viewBox="0 0 14.304 14.304">
  <path id="Fill_1" data-name="Fill 1" d="M7.151,14.3A7.152,7.152,0,1,1,14.3,7.151,7.16,7.16,0,0,1,7.151,14.3Zm.014-4.568a1.054,1.054,0,0,0-.755.286.954.954,0,0,0-.3.716.975.975,0,0,0,.3.723,1.041,1.041,0,0,0,.755.293,1,1,0,0,0,.735-.293.986.986,0,0,0,.293-.723.965.965,0,0,0-.293-.716A1.011,1.011,0,0,0,7.165,9.736ZM6.2,2.549l.312,6.094H7.8l.326-6.094Z" transform="translate(0)" fill="#f71d1d"/>
</svg>
