<svg xmlns="http://www.w3.org/2000/svg" width="25" height="208.146" viewBox="0 0 25 208.146">
  <g id="logo" transform="translate(0 208.146) rotate(-90)">
    <g id="Group_45" data-name="Group 45">
      <path id="Fill_1" data-name="Fill 1" d="M7.045,19.466a9.837,9.837,0,0,1-5-1.331l-.205-.109.6-2.479a8.441,8.441,0,0,0,4.6,1.467c2.453,0,3.918-1.406,3.918-3.76V11.759a6.371,6.371,0,0,1-4.391,1.627,6.48,6.48,0,0,1-4.764-1.963A6.769,6.769,0,0,1,0,6.72,6.856,6.856,0,0,1,1.807,1.97,6.461,6.461,0,0,1,6.572,0a5.925,5.925,0,0,1,4.391,1.653V.24H13.7V12.694a6.8,6.8,0,0,1-1.887,5.056A6.706,6.706,0,0,1,7.045,19.466Zm.263-17.04A4.221,4.221,0,0,0,2.786,6.72a4.2,4.2,0,0,0,4.522,4.24,5.236,5.236,0,0,0,3.655-1.573V4.054A5.228,5.228,0,0,0,7.308,2.426Z" transform="translate(0.301 5.051)" fill="#15573f"/>
      <path id="Stroke_3" data-name="Stroke 3" d="M7.045,19.466a9.837,9.837,0,0,1-5-1.331l-.205-.109.6-2.479a8.441,8.441,0,0,0,4.6,1.467c2.453,0,3.918-1.406,3.918-3.76V11.759a6.371,6.371,0,0,1-4.391,1.627,6.48,6.48,0,0,1-4.764-1.963A6.769,6.769,0,0,1,0,6.72,6.856,6.856,0,0,1,1.807,1.97,6.461,6.461,0,0,1,6.572,0a5.925,5.925,0,0,1,4.391,1.653V.24H13.7V12.694a6.8,6.8,0,0,1-1.887,5.056A6.706,6.706,0,0,1,7.045,19.466Zm.263-17.04A4.221,4.221,0,0,0,2.786,6.72a4.2,4.2,0,0,0,4.522,4.24,5.236,5.236,0,0,0,3.655-1.573V4.054A5.228,5.228,0,0,0,7.308,2.426Z" transform="translate(0.301 5.051)" fill="none" stroke="#15573f" stroke-miterlimit="10" stroke-width="0.6"/>
      <path id="Fill_5" data-name="Fill 5" d="M2.761,3.947c0-.96-.237-1.573-1.1-1.573a3.014,3.014,0,0,0-1.473.453L0,.667A5.129,5.129,0,0,1,2.682,0,2.489,2.489,0,0,1,5.416,2.4,3.691,3.691,0,0,1,8.991,0a2.988,2.988,0,0,1,2.5.96l-.5,2.453A2.943,2.943,0,0,0,8.6,2.56c-1.945,0-2.733,1.813-3.1,3.68v7.946H2.761Z" transform="translate(19.015 5.051)" fill="#15573f"/>
      <path id="Stroke_7" data-name="Stroke 7" d="M2.761,3.947c0-.96-.237-1.573-1.1-1.573a3.014,3.014,0,0,0-1.473.453L0,.667A5.129,5.129,0,0,1,2.682,0,2.489,2.489,0,0,1,5.416,2.4,3.691,3.691,0,0,1,8.991,0a2.988,2.988,0,0,1,2.5.96l-.5,2.453A2.943,2.943,0,0,0,8.6,2.56c-1.945,0-2.733,1.813-3.1,3.68v7.946H2.761Z" transform="translate(19.015 5.051)" fill="none" stroke="#15573f" stroke-miterlimit="10" stroke-width="0.6"/>
      <path id="Fill_9" data-name="Fill 9" d="M7.44,14.693A7.336,7.336,0,0,1,1.778,12.56,7.48,7.48,0,0,1,0,7.386,7.586,7.586,0,0,1,1.945,2.153,6.992,6.992,0,0,1,7.2,0a6.217,6.217,0,0,1,4.63,1.707,5.789,5.789,0,0,1,1.5,4.106,10.482,10.482,0,0,1-.289,2.454H2.813c.2,1.86,1.181,4.079,4.706,4.079A7.6,7.6,0,0,0,12.067,10.8l1.077,2A8.927,8.927,0,0,1,7.44,14.693ZM7.151,2.32A4.115,4.115,0,0,0,2.866,6.107h7.781A6.95,6.95,0,0,0,10.7,5.36C10.7,3.891,9.768,2.32,7.151,2.32Z" transform="translate(34.234 4.918)" fill="#15573f"/>
      <path id="Stroke_11" data-name="Stroke 11" d="M7.44,14.693A7.336,7.336,0,0,1,1.778,12.56,7.48,7.48,0,0,1,0,7.386,7.586,7.586,0,0,1,1.945,2.153,6.992,6.992,0,0,1,7.2,0a6.217,6.217,0,0,1,4.63,1.707,5.789,5.789,0,0,1,1.5,4.106,10.482,10.482,0,0,1-.289,2.454H2.813c.2,1.86,1.181,4.079,4.706,4.079A7.6,7.6,0,0,0,12.067,10.8l1.077,2A8.927,8.927,0,0,1,7.44,14.693ZM7.151,2.32A4.115,4.115,0,0,0,2.866,6.107h7.781A6.95,6.95,0,0,0,10.7,5.36C10.7,3.891,9.768,2.32,7.151,2.32Z" transform="translate(34.234 4.918)" fill="none" stroke="#15573f" stroke-miterlimit="10" stroke-width="0.6"/>
      <path id="Fill_13" data-name="Fill 13" d="M7.44,14.693A7.336,7.336,0,0,1,1.778,12.56,7.48,7.48,0,0,1,0,7.386,7.586,7.586,0,0,1,1.945,2.153,6.992,6.992,0,0,1,7.2,0a6.217,6.217,0,0,1,4.63,1.707,5.789,5.789,0,0,1,1.5,4.106,10.482,10.482,0,0,1-.289,2.454H2.813c.2,1.86,1.181,4.079,4.706,4.079A7.6,7.6,0,0,0,12.067,10.8l1.077,2A8.927,8.927,0,0,1,7.44,14.693ZM7.151,2.32A4.115,4.115,0,0,0,2.866,6.107h7.781A6.95,6.95,0,0,0,10.7,5.36C10.7,3.891,9.768,2.32,7.151,2.32Z" transform="translate(52.397 4.918)" fill="#15573f"/>
      <path id="Stroke_15" data-name="Stroke 15" d="M7.44,14.693A7.336,7.336,0,0,1,1.778,12.56,7.48,7.48,0,0,1,0,7.386,7.586,7.586,0,0,1,1.945,2.153,6.992,6.992,0,0,1,7.2,0a6.217,6.217,0,0,1,4.63,1.707,5.789,5.789,0,0,1,1.5,4.106,10.482,10.482,0,0,1-.289,2.454H2.813c.2,1.86,1.181,4.079,4.706,4.079A7.6,7.6,0,0,0,12.067,10.8l1.077,2A8.927,8.927,0,0,1,7.44,14.693ZM7.151,2.32A4.115,4.115,0,0,0,2.866,6.107h7.781A6.95,6.95,0,0,0,10.7,5.36C10.7,3.891,9.768,2.32,7.151,2.32Z" transform="translate(52.397 4.918)" fill="none" stroke="#15573f" stroke-miterlimit="10" stroke-width="0.6"/>
      <path id="Fill_17" data-name="Fill 17" d="M2.734.24V2.374A5.5,5.5,0,0,1,7.466,0c3.549,0,5.179,2.693,5.179,6.16v4.346c0,.934.263,1.573,1.1,1.573A2.827,2.827,0,0,0,15.2,11.6l.184,2.213a5.837,5.837,0,0,1-2.655.64c-1.867,0-2.813-1.04-2.813-3.334V6.587C9.911,4.214,8.78,2.56,6.52,2.56A4.1,4.1,0,0,0,2.734,5.574v8.613H0V.24Z" transform="translate(71.533 5.051)" fill="#15573f"/>
      <path id="Stroke_19" data-name="Stroke 19" d="M2.734.24V2.374A5.5,5.5,0,0,1,7.466,0c3.549,0,5.179,2.693,5.179,6.16v4.346c0,.934.263,1.573,1.1,1.573A2.827,2.827,0,0,0,15.2,11.6l.184,2.213a5.837,5.837,0,0,1-2.655.64c-1.867,0-2.813-1.04-2.813-3.334V6.587C9.911,4.214,8.78,2.56,6.52,2.56A4.1,4.1,0,0,0,2.734,5.574v8.613H0V.24Z" transform="translate(71.533 5.051)" fill="none" stroke="#15573f" stroke-miterlimit="10" stroke-width="0.6"/>
      <path id="Fill_21" data-name="Fill 21" d="M5.311,0V3.546h5.363V5.732H5.311v6.934c0,1.813.789,2.667,2.208,2.667a5.691,5.691,0,0,0,3.05-1.067l.894,2.16A8.968,8.968,0,0,1,6.7,17.759c-2.55,0-4.128-1.573-4.128-4.56V5.732H0V3.546H2.577L2.892,0Z" transform="translate(98.763 1.745)" fill="#1a825a"/>
      <path id="Stroke_23" data-name="Stroke 23" d="M5.311,0V3.546h5.363V5.732H5.311v6.934c0,1.813.789,2.667,2.208,2.667a5.691,5.691,0,0,0,3.05-1.067l.894,2.16A8.968,8.968,0,0,1,6.7,17.759c-2.55,0-4.128-1.573-4.128-4.56V5.732H0V3.546H2.577L2.892,0Z" transform="translate(98.763 1.745)" fill="none" stroke="#1a825a" stroke-miterlimit="10" stroke-width="0.6"/>
      <path id="Fill_25" data-name="Fill 25" d="M2.734,0V7.093A5.418,5.418,0,0,1,7.466,4.746c3.549,0,5.179,2.693,5.179,6.16v4.346c0,.934.263,1.573,1.1,1.573a2.991,2.991,0,0,0,1.446-.48l.184,2.213a5.658,5.658,0,0,1-2.655.64c-1.867,0-2.813-1.04-2.813-3.333V11.333c0-2.373-1.131-4.027-3.392-4.027A4.1,4.1,0,0,0,2.734,10.32v8.613H0V0Z" transform="translate(115.323 0.305)" fill="#1a825a"/>
      <path id="Stroke_27" data-name="Stroke 27" d="M2.734,0V7.093A5.418,5.418,0,0,1,7.466,4.746c3.549,0,5.179,2.693,5.179,6.16v4.346c0,.934.263,1.573,1.1,1.573a2.991,2.991,0,0,0,1.446-.48l.184,2.213a5.658,5.658,0,0,1-2.655.64c-1.867,0-2.813-1.04-2.813-3.333V11.333c0-2.373-1.131-4.027-3.392-4.027A4.1,4.1,0,0,0,2.734,10.32v8.613H0V0Z" transform="translate(115.323 0.305)" fill="none" stroke="#1a825a" stroke-miterlimit="10" stroke-width="0.6"/>
      <path id="Fill_29" data-name="Fill 29" d="M12.619,0V10.266c0,.934.237,1.573,1.078,1.573a2.913,2.913,0,0,0,1.472-.48l.21,2.213a6.046,6.046,0,0,1-2.682.64,2.456,2.456,0,0,1-2.708-2.107,5.791,5.791,0,0,1-4.837,2.107C1.6,14.213,0,11.733,0,8.08V0H2.734V7.68c0,2.56.893,3.973,3.391,3.973a4.061,4.061,0,0,0,3.76-2.48V0Z" transform="translate(135.3 5.291)" fill="#1a825a"/>
      <path id="Stroke_31" data-name="Stroke 31" d="M12.619,0V10.266c0,.934.237,1.573,1.078,1.573a2.913,2.913,0,0,0,1.472-.48l.21,2.213a6.046,6.046,0,0,1-2.682.64,2.456,2.456,0,0,1-2.708-2.107,5.791,5.791,0,0,1-4.837,2.107C1.6,14.213,0,11.733,0,8.08V0H2.734V7.68c0,2.56.893,3.973,3.391,3.973a4.061,4.061,0,0,0,3.76-2.48V0Z" transform="translate(135.3 5.291)" fill="none" stroke="#1a825a" stroke-miterlimit="10" stroke-width="0.6"/>
      <path id="Fill_33" data-name="Fill 33" d="M2.734.266v2.08A5.3,5.3,0,0,1,7.335,0c2.471,0,3.891.987,4.574,2.907a5.416,5.416,0,0,1,5-2.88c3.549,0,5.021,2.693,5.021,6.16v4.346c0,.934.263,1.573,1.078,1.573a3,3,0,0,0,1.472-.48l.21,2.213A6.046,6.046,0,0,1,22,14.48c-1.84,0-2.813-1.04-2.813-3.334V6.613c0-2.373-1.026-4.026-3.286-4.026a3.719,3.719,0,0,0-3.549,2.88v8.746H9.622V6.587c0-2.373-1-4-3.26-4A3.811,3.811,0,0,0,2.734,5.493v8.72H0V.266Z" transform="translate(155.697 5.025)" fill="#1a825a"/>
      <path id="Stroke_35" data-name="Stroke 35" d="M2.734.266v2.08A5.3,5.3,0,0,1,7.335,0c2.471,0,3.891.987,4.574,2.907a5.416,5.416,0,0,1,5-2.88c3.549,0,5.021,2.693,5.021,6.16v4.346c0,.934.263,1.573,1.078,1.573a3,3,0,0,0,1.472-.48l.21,2.213A6.046,6.046,0,0,1,22,14.48c-1.84,0-2.813-1.04-2.813-3.334V6.613c0-2.373-1.026-4.026-3.286-4.026a3.719,3.719,0,0,0-3.549,2.88v8.746H9.622V6.587c0-2.373-1-4-3.26-4A3.811,3.811,0,0,0,2.734,5.493v8.72H0V.266Z" transform="translate(155.697 5.025)" fill="none" stroke="#1a825a" stroke-miterlimit="10" stroke-width="0.6"/>
      <path id="Fill_37" data-name="Fill 37" d="M7.15,19.2a5.811,5.811,0,0,1-4.417-1.76v1.494H0V0H2.733V6.427A6.206,6.206,0,0,1,7.15,4.747a6.261,6.261,0,0,1,4.778,2.02,7.64,7.64,0,0,1,1.821,5.18C13.749,16.217,11.036,19.2,7.15,19.2ZM6.414,7.173A5.307,5.307,0,0,0,2.733,8.8v6.4a5.331,5.331,0,0,0,3.681,1.573c2.7,0,4.522-1.94,4.522-4.827C10.936,9.091,9.119,7.173,6.414,7.173Z" transform="translate(185.163 0.305)" fill="#1a825a"/>
      <path id="Stroke_39" data-name="Stroke 39" d="M7.15,19.2a5.811,5.811,0,0,1-4.417-1.76v1.494H0V0H2.733V6.427A6.206,6.206,0,0,1,7.15,4.747a6.261,6.261,0,0,1,4.778,2.02,7.64,7.64,0,0,1,1.821,5.18C13.749,16.217,11.036,19.2,7.15,19.2ZM6.414,7.173A5.307,5.307,0,0,0,2.733,8.8v6.4a5.331,5.331,0,0,0,3.681,1.573c2.7,0,4.522-1.94,4.522-4.827C10.936,9.091,9.119,7.173,6.414,7.173Z" transform="translate(185.163 0.305)" fill="none" stroke="#1a825a" stroke-miterlimit="10" stroke-width="0.6"/>
      <path id="Fill_41" data-name="Fill 41" d="M1.84,0A1.7,1.7,0,0,1,3.707,1.867,1.682,1.682,0,0,1,1.84,3.733,1.663,1.663,0,0,1,0,1.867,1.675,1.675,0,0,1,1.84,0" transform="translate(204.139 15.825)" fill="#1a825a"/>
      <path id="Stroke_43" data-name="Stroke 43" d="M1.84,0A1.7,1.7,0,0,1,3.707,1.867,1.682,1.682,0,0,1,1.84,3.733,1.663,1.663,0,0,1,0,1.867,1.675,1.675,0,0,1,1.84,0Z" transform="translate(204.139 15.825)" fill="none" stroke="#1a825a" stroke-miterlimit="10" stroke-width="0.6"/>
    </g>
  </g>
</svg>
